<?xml version="1.0" encoding="UTF-8"?>
<svg id="Capa_2" data-name="Capa 2" xmlns="http://www.w3.org/2000/svg" viewBox="0 0 280.76 280.76">
  <defs>
    <style>
      .cls-1 {
        fill: #b11917;
      }

      .cls-2 {
        fill: #e41019;
      }

      .cls-3 {
        fill: #0e0e0e;
      }
    </style>
  </defs>
  <g id="Capa_1-2" data-name="Capa 1">
    <g id="NetflixEnhanced_Logo_Iso_Fondo">
      <rect class="cls-3" width="280.76" height="280.76" rx="44.5" ry="44.5"/>
      <g>
        <g>
          <path class="cls-1" d="m189.04,50.07c.01,59.05.03,118.1.04,177.15-9.46-.44-18.93-.76-28.4-.94,0-58.74-.01-117.47-.02-176.21,9.46,0,18.92,0,28.38,0Z"/>
          <path class="cls-2" d="m160.85,201.11c0,8.39,0,16.78,0,25.17,25.83.51,51.64,1.98,77.39,4.41,0-8.6,0-17.2,0-25.8-25.75-2.09-51.57-3.35-77.39-3.78Z"/>
          <g>
            <path class="cls-1" d="m106.25,50.07c0,30.99-.01,61.99-.02,92.98,8.43,27.72,16.86,55.36,25.29,83.06,0-58.68,0-117.36,0-176.05h-25.29Zm-63.73,180.62c8.41-.8,16.83-1.49,25.25-2.08,0-34.36.01-68.72.02-103.08-8.42-24.91-16.84-50.02-25.27-75.47,0,60.21,0,120.42,0,180.62Z"/>
            <path class="cls-2" d="m131.53,226.12c-9.74.08-19.48.3-29.22.66-11.52-33.58-23.02-67.22-34.52-101.24-8.42-24.91-16.84-50.02-25.27-75.47,11.87,0,23.74,0,35.61,0,9.37,31.22,18.74,62.15,28.11,92.98,8.43,27.72,16.86,55.36,25.29,83.06Z"/>
          </g>
        </g>
        <rect class="cls-2" x="160.83" y="50.07" width="77.41" height="25.8"/>
        <rect class="cls-2" x="160.83" y="123.61" width="67.35" height="25.8"/>
      </g>
    </g>
  </g>
</svg>