<?xml version="1.0" encoding="UTF-8"?>
<svg id="Capa_2" data-name="Capa 2" xmlns="http://www.w3.org/2000/svg" viewBox="0 0 1184.35 147.11">
  <defs>
    <style>
      .cls-1 {
        fill: #e41019;
      }
    </style>
  </defs>
  <g id="Capa_1-2" data-name="Capa 1">
    <g id="NetflixEnhanced_Logo_Logo_Sin-Fondo">
      <path class="cls-1" d="m0,2.07c9.53-.01,19.06-.02,28.59-.04,7.38,28.42,14.75,56.45,22.11,84.12.14,0,.28-.01.41-.02.02-28.04.04-56.09.06-84.13,6.77,0,13.54-.02,20.31-.02-.04,46.29-.09,92.59-.13,138.88-7.79.64-15.59,1.29-23.38,1.96-9.08-33.49-18.17-67.51-27.27-102.12-.14,0-.28,0-.41.01-.01,34.85-.02,69.7-.03,104.55-6.76.61-13.51,1.23-20.26,1.86C0,98.77,0,50.42,0,2.07Z"/>
      <path class="cls-1" d="m88.47,1.96c20.72-.02,41.44-.04,62.16-.06-.01,6.33-.02,12.67-.03,19-13.12.14-26.24.29-39.36.44-.02,11.96-.03,23.93-.05,35.89,10.42-.33,20.85-.64,31.28-.95,0,6.36-.02,12.72-.03,19.08-10.42.41-20.85.83-31.27,1.27-.02,13.9-.04,27.81-.05,41.71,13.11-.85,26.22-1.67,39.34-2.45-.01,6.33-.02,12.67-.03,19-20.71,1.44-41.41,2.98-62.1,4.61.05-45.85.1-91.69.15-137.54Z"/>
      <path class="cls-1" d="m181.47,20.58c-7.94.08-15.88.16-23.83.25.01-6.31.02-12.62.03-18.93,23.48-.02,46.97-.04,70.45-.06-.01,6.1-.02,12.21-.03,18.31-7.94.07-15.89.14-23.83.22-.07,37.01-.14,74.02-.21,111.04-7.59.46-15.19.94-22.78,1.43.07-37.41.13-74.83.2-112.24Z"/>
      <path class="cls-1" d="m239.11,1.82c20.1-.02,40.2-.03,60.29-.04-.01,5.93-.02,11.86-.03,17.79-12.5.09-25,.18-37.5.28-.02,11.73-.05,23.46-.07,35.19,9.81-.22,19.62-.43,29.43-.63-.01,5.95-.02,11.9-.03,17.84-9.81.26-19.62.54-29.43.83-.04,18.35-.07,36.7-.11,55.05-7.6.39-15.2.8-22.79,1.22.08-42.51.16-85.03.25-127.54Z"/>
      <path class="cls-1" d="m310.38,1.77c7.6,0,15.19,0,22.79-.01-.06,35.17-.13,70.33-.19,105.5,12.51-.44,25.01-.84,37.52-1.22,0,5.79-.02,11.59-.03,17.38-20.11.7-40.22,1.49-60.32,2.38.08-41.35.16-82.69.24-124.04Z"/>
      <path class="cls-1" d="m381.66,1.73c7.6,0,15.19,0,22.79-.01-.06,40.21-.12,80.41-.18,120.62-7.6.22-15.21.46-22.81.71.07-40.44.13-80.88.2-121.32Z"/>
      <path class="cls-1" d="m441.47,60.17c-8.34-19.39-16.67-38.86-25-58.45,8.01,0,16.02,0,24.03,0,5.09,12.88,10.19,25.72,15.29,38.52.14,0,.28,0,.41,0,5.27-12.88,10.53-25.72,15.79-38.53,7.18,0,14.37,0,21.55,0-8.37,19.32-16.75,38.71-25.13,58.18,8.75,20.22,17.51,40.35,26.27,60.44-8.02.12-16.04.26-24.06.41-5.52-13.73-11.03-27.48-16.54-41.27-.14,0-.28,0-.42,0-5.68,13.95-11.37,27.95-17.05,42-7.19.18-14.38.36-21.57.56,8.81-20.76,17.61-41.37,26.42-61.87Z"/>
      <path class="cls-1" d="m538.72,1.69c20.72,0,41.44,0,62.16,0,0,5.61,0,11.23,0,16.84-13.13,0-26.25,0-39.38.01,0,10.39,0,20.78,0,31.18,10.43-.02,20.87-.03,31.3-.03,0,5.61,0,11.23,0,16.84-10.44,0-20.87.01-31.31.04,0,12.08,0,24.16-.01,36.23,13.14-.05,26.27-.07,39.41-.06,0,5.61,0,11.23,0,16.84-20.74-.03-41.49.04-62.23.22.02-39.37.04-78.74.06-118.11Z"/>
      <path class="cls-1" d="m613.93,1.68c9.53,0,19.06,0,28.59,0,7.4,23.56,14.81,47.16,22.22,70.81.14,0,.28,0,.41,0-.02-23.6-.03-47.21-.05-70.81,6.77,0,13.54,0,20.31,0,.03,39.52.07,79.04.1,118.57-7.81-.11-15.63-.21-23.44-.3-9.14-28.88-18.28-57.67-27.41-86.4-.14,0-.28,0-.41,0,.01,28.72.02,57.44.03,86.16-6.78-.04-13.55-.08-20.33-.1,0-39.31-.02-78.62-.02-117.93Z"/>
      <path class="cls-1" d="m702.41,1.7c7.6,0,15.19,0,22.79,0,.02,16.19.04,32.37.06,48.56,8.15.07,16.31.15,24.46.23-.02-16.26-.04-32.52-.06-48.78,7.6,0,15.2,0,22.79,0,.06,40.14.12,80.27.18,120.41-7.6-.22-15.21-.42-22.81-.6-.02-17.97-.05-35.94-.07-53.92-8.15-.11-16.31-.22-24.46-.31.02,17.89.04,35.78.06,53.67-7.6-.16-15.21-.3-22.81-.44-.04-39.61-.08-79.22-.12-118.83Z"/>
      <path class="cls-1" d="m807.05,1.73c10.29,0,20.58.01,30.87.02,7.95,40.86,15.9,82.02,23.85,123.52-7.6-.32-15.2-.63-22.8-.92-1.4-8.17-2.79-16.33-4.19-24.47,0,.12,0,.23,0,.35-8.64-.27-17.28-.52-25.91-.75-1.37,7.89-2.74,15.77-4.11,23.64-7.05-.24-14.1-.46-21.15-.67,7.82-40,15.63-80.23,23.44-120.71Zm25.01,81.81c-3.42-20.24-6.84-40.42-10.26-60.54-.14,0-.28,0-.41,0-3.28,20.07-6.56,40.09-9.85,60.05,6.84.16,13.68.32,20.52.5Z"/>
      <path class="cls-1" d="m872.52,1.77c9.53,0,19.06.01,28.59.02,7.44,25,14.88,50.22,22.32,75.66.14,0,.28,0,.41.01-.05-25.22-.1-50.44-.15-75.66,6.77,0,13.54.01,20.31.02.08,42.49.16,84.98.25,127.48-7.8-.43-15.61-.85-23.41-1.25-9.18-31.19-18.35-62.02-27.53-92.54-.14,0-.28,0-.41,0,.06,30.39.12,60.78.18,91.17-6.77-.32-13.54-.63-20.31-.93-.08-41.33-.16-82.65-.24-123.98Z"/>
      <path class="cls-1" d="m968.37,124.24c-5.74-5.85-8.62-13.74-8.64-23.76-.04-22.98-.09-45.96-.13-68.94-.02-10.02,2.83-17.75,8.56-23.25C973.88,2.78,982.19,0,993.11,0c10.91,0,19.24,2.8,24.98,8.48,5.74,5.68,8.62,13.73,8.64,24.08,0,4.67.02,9.34.02,14.01-7.18-.17-14.36-.34-21.54-.5,0-5.06-.02-10.11-.03-15.17-.01-8.12-3.82-12.21-11.42-12.28-7.6-.06-11.39,3.92-11.37,11.94.04,24.15.09,48.29.13,72.44.02,7.9,3.82,12.05,11.42,12.47,7.59.42,11.39-3.35,11.37-11.35-.01-6.68-.02-13.36-.04-20.04,7.18.29,14.36.6,21.54.91.01,6.25.02,12.49.03,18.74.02,10.35-2.84,18.2-8.55,23.49-5.72,5.29-14.04,7.54-24.94,6.84-10.91-.7-19.23-3.99-24.97-9.83Z"/>
      <path class="cls-1" d="m1040.35,1.91c20.72.02,41.44.04,62.16.07,0,6.57.01,13.15.02,19.72-13.12-.16-26.24-.32-39.36-.47.02,11.9.03,23.8.05,35.7,10.42.32,20.85.65,31.27.99,0,6.54.01,13.09.02,19.63-10.42-.46-20.84-.9-31.27-1.33.02,13.83.04,27.66.06,41.48,13.11.83,26.22,1.7,39.33,2.61,0,6.57.01,13.15.02,19.72-20.69-1.66-41.39-3.22-62.1-4.68-.07-44.48-.14-88.96-.21-133.44Z"/>
      <path class="cls-1" d="m1115.57,1.99c11.6.01,23.21.03,34.81.04,11.33.01,19.82,3.01,25.49,9.1,5.66,6.08,8.49,15.05,8.49,26.79v73.35c0,11.75-2.83,20.44-8.48,25.99-5.65,5.56-14.13,7.78-25.43,6.78-11.58-1.02-23.17-2-34.75-2.96-.04-46.37-.08-92.73-.12-139.1Zm34.45,121.74c3.73.28,6.58-.58,8.58-2.61,2-2.02,3-5.5,3-10.4,0-24.79-.02-49.57-.02-74.36,0-4.9-1.01-8.46-3.01-10.67-2-2.2-4.87-3.33-8.6-3.38-3.87-.05-7.73-.1-11.6-.16.02,33.57.04,67.14.06,100.71,3.86.29,7.72.57,11.58.86Z"/>
    </g>
  </g>
</svg>